<?xml version="1.0" encoding="UTF-8" standalone="no"?>
<!-- Created with Inkscape (http://www.inkscape.org/) -->

<svg
   xmlns:dc="http://purl.org/dc/elements/1.1/"
   xmlns:cc="http://creativecommons.org/ns#"
   xmlns:rdf="http://www.w3.org/1999/02/22-rdf-syntax-ns#"
   xmlns:svg="http://www.w3.org/2000/svg"
   xmlns="http://www.w3.org/2000/svg"
   xmlns:sodipodi="http://sodipodi.sourceforge.net/DTD/sodipodi-0.dtd"
   xmlns:inkscape="http://www.inkscape.org/namespaces/inkscape"
   width="20.122185mm"
   height="13.036007mm"
   viewBox="0 0 20.122185 13.036007"
   version="1.1"
   id="svg8"
   inkscape:version="0.92.5 (2060ec1f9f, 2020-04-08)"
   sodipodi:docname="logo.svg">
  <defs
     id="defs2" />
  <sodipodi:namedview
     id="base"
     pagecolor="#ffffff"
     bordercolor="#666666"
     borderopacity="1.0"
     inkscape:pageopacity="0.0"
     inkscape:pageshadow="2"
     inkscape:zoom="5.6"
     inkscape:cx="43.42532"
     inkscape:cy="48.799697"
     inkscape:document-units="mm"
     inkscape:current-layer="layer1"
     showgrid="false"
     fit-margin-top="0"
     fit-margin-left="0"
     fit-margin-right="0"
     fit-margin-bottom="0"
     inkscape:window-width="1920"
     inkscape:window-height="1016"
     inkscape:window-x="0"
     inkscape:window-y="27"
     inkscape:window-maximized="1" />
  <metadata
     id="metadata5">
    <rdf:RDF>
      <cc:Work
         rdf:about="">
        <dc:format>image/svg+xml</dc:format>
        <dc:type
           rdf:resource="http://purl.org/dc/dcmitype/StillImage" />
        <dc:title></dc:title>
      </cc:Work>
    </rdf:RDF>
  </metadata>
  <g
     inkscape:label="Layer 1"
     inkscape:groupmode="layer"
     id="layer1"
     transform="translate(-25.833886,-17.190103)">
    <flowRoot
       transform="matrix(0.26458333,0,0,0.26458333,23.760106,7.3904118)"
       xml:space="preserve"
       id="flowRoot815-2"
       style="font-style:normal;font-variant:normal;font-weight:normal;font-stretch:normal;font-size:13.33333302px;line-height:1.25;font-family:Helvetica;-inkscape-font-specification:Helvetica;text-align:center;letter-spacing:0px;word-spacing:0px;text-anchor:middle;fill:#000000;fill-opacity:1;stroke:none"><flowRegion
         id="flowRegion817-7"><rect
           id="rect819-0"
           width="44.446712"
           height="60.609154"
           x="94.954338"
           y="65.900124" /></flowRegion><flowPara
         id="flowPara821-9"
         style="font-style:normal;font-variant:normal;font-weight:bold;font-stretch:normal;font-size:32px;font-family:Helvetica;-inkscape-font-specification:'Helvetica Bold'" /></flowRoot>    <g
       aria-label="O"
       style="font-style:normal;font-variant:normal;font-weight:normal;font-stretch:normal;font-size:3.52777767px;line-height:1.25;font-family:Helvetica;-inkscape-font-specification:Helvetica;text-align:center;letter-spacing:0px;word-spacing:0px;text-anchor:middle;fill:#4aedfc;fill-opacity:1;stroke:none;stroke-width:0.26458332"
       id="text1732">
      <path
         d="m 45.956071,20.046776 q 0,1.42627 -0.578776,2.158008 -0.578776,0.731738 -1.661914,0.731738 -1.083138,0 -1.666048,-0.731738 -0.578776,-0.731738 -0.578776,-2.158008 0,-1.426269 0.578776,-2.141471 0.58291,-0.715202 1.666048,-0.715202 1.083138,0 1.661914,0.715202 0.578776,0.715202 0.578776,2.141471 z m -1.2361,0 q 0,-1.897558 -1.00459,-1.897558 -1.008724,0 -1.008724,1.897558 0,0.950847 0.252181,1.442806 0.256315,0.487826 0.756543,0.487826 0.500228,0 0.752409,-0.487826 0.252181,-0.491959 0.252181,-1.442806 z"
         style="font-style:normal;font-variant:normal;font-weight:bold;font-stretch:normal;font-size:8.46666622px;font-family:'Liberation Mono';-inkscape-font-specification:'Liberation Mono Bold';fill:#4aedfc;fill-opacity:1;stroke-width:0.26458332"
         id="path1755" />
    </g>
    <g
       aria-label="O"
       style="font-style:normal;font-variant:normal;font-weight:normal;font-stretch:normal;font-size:3.52777767px;line-height:1.25;font-family:Helvetica;-inkscape-font-specification:Helvetica;text-align:center;letter-spacing:0px;word-spacing:0px;text-anchor:middle;fill:#4aedfc;fill-opacity:1;stroke:none;stroke-width:0.26458332"
       id="text1726">
      <path
         d="m 45.956071,27.249548 q 0,1.42627 -0.578776,2.158008 -0.578776,0.731738 -1.661914,0.731738 -1.083138,0 -1.666048,-0.731738 -0.578776,-0.731738 -0.578776,-2.158008 0,-1.426269 0.578776,-2.141471 0.58291,-0.715202 1.666048,-0.715202 1.083138,0 1.661914,0.715202 0.578776,0.715202 0.578776,2.141471 z m -1.2361,0 q 0,-1.897558 -1.00459,-1.897558 -1.008724,0 -1.008724,1.897558 0,0.950847 0.252181,1.442806 0.256315,0.487826 0.756543,0.487826 0.500228,0 0.752409,-0.487826 0.252181,-0.491959 0.252181,-1.442806 z"
         style="font-style:normal;font-variant:normal;font-weight:bold;font-stretch:normal;font-size:8.46666622px;font-family:'Liberation Mono';-inkscape-font-specification:'Liberation Mono Bold';fill:#4aedfc;fill-opacity:1;stroke-width:0.26458332"
         id="path1752" />
    </g>
    <g
       aria-label="O"
       style="font-style:normal;font-variant:normal;font-weight:normal;font-stretch:normal;font-size:3.52777767px;line-height:1.25;font-family:Helvetica;-inkscape-font-specification:Helvetica;text-align:center;letter-spacing:0px;word-spacing:0px;text-anchor:middle;fill:#4aedfc;fill-opacity:1;stroke:none;stroke-width:0.26458332"
       id="text1720">
      <path
         d="m 35.698365,20.046776 q 0,1.42627 -0.578776,2.158008 -0.578776,0.731738 -1.661914,0.731738 -1.083138,0 -1.666048,-0.731738 -0.578776,-0.731738 -0.578776,-2.158008 0,-1.426269 0.578776,-2.141471 0.58291,-0.715202 1.666048,-0.715202 1.083138,0 1.661914,0.715202 0.578776,0.715202 0.578776,2.141471 z m -1.2361,0 q 0,-1.897558 -1.00459,-1.897558 -1.008723,0 -1.008723,1.897558 0,0.950847 0.25218,1.442806 0.256316,0.487826 0.756543,0.487826 0.500228,0 0.752409,-0.487826 0.252181,-0.491959 0.252181,-1.442806 z"
         style="font-style:normal;font-variant:normal;font-weight:bold;font-stretch:normal;font-size:8.46666622px;font-family:'Liberation Mono';-inkscape-font-specification:'Liberation Mono Bold';fill:#4aedfc;fill-opacity:1;stroke-width:0.26458332"
         id="path1749" />
    </g>
    <g
       aria-label="O"
       style="font-style:normal;font-variant:normal;font-weight:normal;font-stretch:normal;font-size:3.52777767px;line-height:1.25;font-family:Helvetica;-inkscape-font-specification:Helvetica;text-align:center;letter-spacing:0px;word-spacing:0px;text-anchor:middle;fill:#4aedfc;fill-opacity:1;stroke:none;stroke-width:0.26458332"
       id="text1714">
      <path
         d="m 35.698365,27.249548 q 0,1.42627 -0.578776,2.158008 -0.578776,0.731738 -1.661914,0.731738 -1.083138,0 -1.666048,-0.731738 -0.578776,-0.731738 -0.578776,-2.158008 0,-1.426269 0.578776,-2.141471 0.58291,-0.715202 1.666048,-0.715202 1.083138,0 1.661914,0.715202 0.578776,0.715202 0.578776,2.141471 z m -1.2361,0 q 0,-1.897558 -1.00459,-1.897558 -1.008723,0 -1.008723,1.897558 0,0.950847 0.25218,1.442806 0.256316,0.487826 0.756543,0.487826 0.500228,0 0.752409,-0.487826 0.252181,-0.491959 0.252181,-1.442806 z"
         style="font-style:normal;font-variant:normal;font-weight:bold;font-stretch:normal;font-size:8.46666622px;font-family:'Liberation Mono';-inkscape-font-specification:'Liberation Mono Bold';fill:#4aedfc;fill-opacity:1;stroke-width:0.26458332"
         id="path1746" />
    </g>
    <g
       aria-label="S"
       style="font-style:normal;font-variant:normal;font-weight:normal;font-stretch:normal;font-size:3.52777767px;line-height:1.25;font-family:Helvetica;-inkscape-font-specification:Helvetica;text-align:center;letter-spacing:0px;word-spacing:0px;text-anchor:middle;fill:#f9f9f9;fill-opacity:1;stroke:none;stroke-width:0.26458332"
       id="text1708">
      <path
         d="m 30.493033,21.239469 q 0,0.79375 -0.607715,1.248502 -0.60358,0.450619 -1.682584,0.450619 -0.971517,0 -1.583366,-0.409278 -0.611849,-0.409277 -0.785482,-1.190625 l 1.178223,-0.152962 q 0.09508,0.388607 0.396875,0.615983 0.30179,0.223242 0.826823,0.223242 0.545703,0 0.806152,-0.173632 0.264583,-0.173633 0.264583,-0.541569 0,-0.272852 -0.23151,-0.458887 -0.231511,-0.190169 -0.673861,-0.297656 -0.888834,-0.214974 -1.256771,-0.372071 -0.363802,-0.16123 -0.58291,-0.359668 -0.219108,-0.198437 -0.338997,-0.46302 -0.115755,-0.268718 -0.115755,-0.599447 0,-0.72347 0.578776,-1.14515 0.58291,-0.421679 1.533756,-0.421679 0.926042,0 1.44694,0.367936 0.520899,0.363802 0.673861,1.132747 l -1.182357,0.11989 q -0.181901,-0.756543 -0.963248,-0.756543 -0.438217,0 -0.669727,0.165364 -0.23151,0.161231 -0.23151,0.467155 0,0.202572 0.111621,0.338998 0.111621,0.132291 0.30179,0.227376 0.194303,0.09095 0.785482,0.243913 0.777213,0.190169 1.194759,0.425813 0.417545,0.231511 0.611849,0.56224 0.194303,0.330729 0.194303,0.752409 z"
         style="font-style:normal;font-variant:normal;font-weight:bold;font-stretch:normal;font-size:8.46666622px;font-family:'Liberation Mono';-inkscape-font-specification:'Liberation Mono Bold';fill:#f9f9f9;stroke-width:0.26458332"
         id="path1743" />
    </g>
    <g
       aria-label="L"
       style="font-style:normal;font-variant:normal;font-weight:normal;font-stretch:normal;font-size:3.52777767px;line-height:1.25;font-family:Helvetica;-inkscape-font-specification:Helvetica;text-align:center;letter-spacing:0px;word-spacing:0px;text-anchor:middle;fill:#f9f9f9;fill-opacity:1;stroke:none;stroke-width:0.26458332"
       id="text1702">
      <path
         d="m 26.280371,30.22611 v -5.57692 h 1.219564 v 4.634342 h 2.546614 v 0.942578 z"
         style="font-style:normal;font-variant:normal;font-weight:bold;font-stretch:normal;font-size:8.46666622px;font-family:'Liberation Mono';-inkscape-font-specification:'Liberation Mono Bold';fill:#f9f9f9;stroke-width:0.26458332"
         id="path1740" />
    </g>
    <g
       aria-label="N"
       style="font-style:normal;font-variant:normal;font-weight:normal;font-stretch:normal;font-size:3.52777767px;line-height:1.25;font-family:Helvetica;-inkscape-font-specification:Helvetica;text-align:center;letter-spacing:0px;word-spacing:0px;text-anchor:middle;fill:#f9f9f9;fill-opacity:1;stroke:none;stroke-width:0.26458332"
       id="text1696">
      <path
         d="m 39.136365,22.845572 -1.587499,-4.175456 q 0.115755,1.041797 0.115755,1.463476 v 2.71198 h -1.062468 v -5.576921 h 1.393197 l 1.624707,4.287077 q -0.115755,-0.971517 -0.115755,-1.508952 v -2.778125 h 1.062467 v 5.576921 z"
         style="font-style:normal;font-variant:normal;font-weight:bold;font-stretch:normal;font-size:8.46666622px;font-family:'Liberation Mono';-inkscape-font-specification:'Liberation Mono Bold';fill:#f9f9f9;stroke-width:0.26458332"
         id="path1737" />
    </g>
    <g
       aria-label="G"
       style="font-style:normal;font-variant:normal;font-weight:normal;font-stretch:normal;font-size:3.52777767px;line-height:1.25;font-family:Helvetica;-inkscape-font-specification:Helvetica;text-align:center;letter-spacing:0px;word-spacing:0px;text-anchor:middle;fill:#f9f9f9;fill-opacity:1;stroke:none;stroke-width:0.26458332"
       id="text1690">
      <path
         d="m 40.750736,29.300069 q -1.004589,0.847494 -2.038118,0.847494 -1.079004,0 -1.686719,-0.756543 -0.607714,-0.760677 -0.607714,-2.141472 0,-2.848404 2.306835,-2.848404 0.744141,0 1.21543,0.384472 0.471289,0.384473 0.694531,1.165821 l -1.132747,0.223242 q -0.219108,-0.814421 -0.764811,-0.814421 -0.558106,0 -0.822689,0.446485 -0.260449,0.446484 -0.260449,1.442805 0,0.921908 0.276985,1.422136 0.276986,0.500228 0.84336,0.500228 0.219108,0 0.450618,-0.08268 0.235645,-0.08268 0.409278,-0.223242 V 27.89447 h -1.132748 v -0.901237 h 2.248958 z"
         style="font-style:normal;font-variant:normal;font-weight:bold;font-stretch:normal;font-size:8.46666622px;font-family:'Liberation Mono';-inkscape-font-specification:'Liberation Mono Bold';fill:#f9f9f9;stroke-width:0.26458332"
         id="path1734" />
    </g>
  </g>
</svg>
